# xmcd
#
# Track frame offsets:
#	187
#	18187
#	36892
#	54047
#	69885
#	85780
#	106830
#	122865
#	136130
#	154725
#	171625
#	190097
#
# Disc length: 2834 seconds
# Revision: 2
# Processed by: cddbd v1.5.2PL0 Copyright (c) Steve Scherf et al.
# Submitted via: dBpowerAMP V12.0
#
DISCID=900b100c
DTITLE=本田美奈子 - 美奈子コレクション [dBS+1]
DYEAR=1986
DGENRE=Japanese Pop
TTITLE0=1986年のマリリン
TTITLE1=青い週末
TTITLE2=Temptation（誘惑）
TTITLE3=マンハッタンの蛍
TTITLE4=Sold out
TTITLE5=HARD TO SAY "I LOVE YOU"
TTITLE6=キャンセル
TTITLE7=暗闇に緋いドレス
TTITLE8=ドラマティックエスケープ
TTITLE9=24時間の反抗
TTITLE10=HELP
TTITLE11=the Cross（愛の十字架）
EXTD=
EXTT0=
EXTT1=
EXTT2=
EXTT3=
EXTT4=
EXTT5=
EXTT6=
EXTT7=
EXTT8=
EXTT9=
EXTT10=
EXTT11=
PLAYORDER=
